<svg xmlns="http://www.w3.org/2000/svg" viewBox="0 0 539 216" width="539" height="216" class="w-2/5 h-auto sm:w-full -rotate-12 sm:-rotate-6" role="none" style="max-width: 200px;"><g fill="#209cee"><path d="m46 22.2q-3.8 0-7 1.9-3.2 1.7-5.6 4.9-2.4 3.1-3.7 7.3-1.4 4.3-1.4 9.1 0 5 2.2 9.3 2.3 4.1 6.3 7.3 4 3.1 9.4 4.8 5.5 1.8 11.9 1.8 4.6 0 8.7-0.8 4.2-0.9 7.3-2.3t4.9-3.3q1.9-2 1.9-4.1 0-1.7-0.6-2.8t-1.5-2q-0.7-0.9-1.3-1.8-0.6-1-0.6-2.4 0-1.3 0.7-2.5 0.6-1.2 1.8-2.2 1.2-0.9 2.7-1.5 1.5-0.5 3.1-0.5 2 0 3.7 1t2.9 2.8q1.3 1.8 2 4.2t0.7 5.1q0 5.4-2.9 10.1t-8 8.1q-5.1 3.3-12.1 5.3-7 1.9-15.2 1.9-9.1 0-16.8-2.5t-13.3-6.8q-5.5-4.4-8.6-10.4t-3.1-13.2q0-7.8 2.7-14.7 2.8-6.9 7.5-12.1t11-8.3q6.3-3 13.4-3 3.2 0 5.8 0.8 2.7 0.6 4.7 1.9 1.9 1.3 3 3t1.1 3.7q0 1.7-0.7 3.1-0.7 1.5-1.8 2.6-1.2 1.1-2.7 1.8-1.5 0.6-3.2 0.6t-2.8-0.8q-1-0.8-1.9-1.7-0.9-1-1.9-1.8-1-0.9-2.7-0.9zm44.5-6.1q0-7.3 9.4-7.3 1.7 0 2.9 0.9t1.4 2.4q0.6 4.1 1.1 8.2 0.4 4 0.8 9.1 0.5 5 0.9 11.6 0.5 6.5 1 15.6 0 1 0.3 1.4t0.7 0.4q0.6 0 1.2-1.3 2.3-5 5.2-9 2.8-4 6-6.8 3.3-2.8 6.8-4.2 3.7-1.5 7.4-1.5 5 0 9.1 2.8 4 2.8 6.8 8 2.9 5.2 4.4 12.6 1.6 7.4 1.6 16.5 0 2.5-0.4 4.1-0.4 1.5-1.2 2.5-0.9 0.9-2.5 1.3-1.5 0.4-3.8 0.4-3.2 0-4.6-1.3-1.3-1.2-1.3-3.7 0-6.4-0.9-12-0.8-5.6-2.3-9.9-1.5-4.2-3.5-6.7t-4.3-2.5q-5.1 0-10.3 8.4-5.1 8.5-10.7 25.4-0.6 1.6-1.3 2.6-0.6 1-1.6 1.6-0.8 0.6-2.1 0.9-1.3 0.2-3.1 0.2-3.5 0-5.1-1.4-1.5-1.3-1.6-4.4-0.4-11.7-1.5-22.4-1-10.7-2.1-19.3-1.1-8.7-2-14.7-0.8-6.1-0.8-8.5zm133 50.1q1.9-1.6 3.8-1.6 1.1 0 1.9 0.5 0.9 0.5 2 1.7 1 1.5 1.4 2.5 0.5 1 0.5 1.9 0 2.1-2 3.9-3.3 2.7-7 4.8-3.8 2.1-7.9 3.6t-8.5 2.3q-4.4 0.7-8.7 0.7-5.5 0-10.3-1.3-4.7-1.4-8.5-4-3.7-2.6-6.3-6.1-2.5-3.7-3.6-8.2-0.6-1.9-1.2-2.4-0.4-0.6-1.6-0.6-2.5 0-3.8-1.2-1.4-1.2-1.4-3.5 0-1 0.2-1.2l0.1-1.4q0.3-2.4 1.3-3.5t3.1-1.1h1q2.8 0 4-2.6 2.1-4.7 5.3-8.5t7.3-6.5q4-2.8 8.6-4.3t9.4-1.5q5 0 9.3 1.5 4.4 1.4 7.6 3.9 3.3 2.6 5.1 6 1.9 3.5 1.9 7.4 0 2.8-1.1 5.1t-3.1 4-4.9 2.8q-2.8 1.1-6.5 1.4l-23.4 2.4q-1.3 0-2.2 0.7-0.8 0.6-0.8 1.8 0 1.7 1.3 3.3 1.3 1.7 3.5 2.9t5 2q2.9 0.7 6 0.7 2.9 0 5.9-0.5 3.1-0.6 6.1-1.7t5.8-2.6q2.9-1.5 5.4-3.5zm-15.1-17.3q1-0.2 1.8-1 0.7-0.8 0.7-1.9 0-1-0.7-1.9-0.8-0.9-2-1.6-1.3-0.7-3-1.1t-3.6-0.4q-2.7 0-5.6 0.8t-5.3 2.1-3.8 2.9q-1.5 1.6-1.5 3.1 0 1.6 1.9 1.6 1.1 0 3.7-0.3 2.5-0.3 5.6-0.6 3.1-0.4 6.3-0.9 3.2-0.4 5.5-0.8zm52.7-23.5q3.5 0 6.8 1t5.8 2.8q2.6 1.7 4.1 3.9 1.6 2.1 1.6 4.4 0 1.5-0.6 2.9t-1.6 2.5q-1.1 1-2.3 1.6-1.3 0.7-2.7 0.7-1.6 0-2.9-1.2-1.2-1.2-2.7-2.6-1.4-1.5-3.3-2.6-1.7-1.3-4.2-1.3-2.4 0-4.4 1.2-1.9 1.1-3.3 3.2-1.3 2-2 4.9-0.7 2.7-0.7 6 0 9.5 3.6 14.5 3.6 4.9 10.2 4.9 3.2 0 5.4-1 2.3-1 4-2.3 1.8-1.2 3.2-2.2t2.9-1q0.8 0 1.6 0.5t1.4 1.3q0.7 0.8 1.1 1.7 0.4 1 0.4 1.9 0 2.2-2.2 4.6-2.1 2.3-5.6 4.3-3.4 1.9-7.7 3.1-4.1 1.2-8.1 1.2-5.3 0-9.8-2-4.4-2.1-7.7-5.7-3.2-3.8-5-8.9t-1.8-11.3q0-6.7 2-12.4t5.5-9.8q3.6-4.1 8.4-6.4 4.9-2.4 10.6-2.4zm27.2 54.3q0-5.9-0.4-12.8-0.3-6.9-0.8-13.9t-1.1-13.8q-0.6-6.7-1.1-12.3t-0.8-9.6q-0.3-4.1-0.3-5.7 0-2.7 2-4.1t5.8-1.4q1.7 0 2.9 0.3t1.9 1.2q0.8 0.8 1.2 2.1t0.6 3.2q0.3 2.7 0.5 5.8t0.4 7q0.3 3.9 0.6 8.8 0.2 4.9 0.6 11.3 0 1 0.4 1.4 0.3 0.4 0.7 0.4 0.8 0 1.4-1.2 5.7-11.7 12-17.8 6.2-6.2 12.2-6.2 3.5 0 5.5 2.1t2 5.6q0 3.7-1.7 7-1.6 3.1-4.1 6-2.4 2.8-5.3 5.3-2.8 2.5-5.3 4.8-2.5 2.4-4.2 4.7-1.6 2.2-1.6 4.5 0 2.1 2.5 4.3 2.4 2.2 7.1 4.3 4.6 2.1 11.4 4.1 6.7 2 15.3 3.8 1.3 0.3 1.9 1.1 0.6 0.7 0.6 1.9 0 1.5-0.7 3.1t-1.7 2.9-2.3 2.2q-1.2 0.8-2.3 0.8-2.3 0-5.5-0.6t-6.9-1.6q-3.6-1.1-7.5-2.4-3.9-1.5-7.6-3-3.7-1.6-7-3.3-3.2-1.8-5.6-3.4-0.7-0.5-1.2-0.7-0.4-0.3-0.7-0.3-0.4 0-0.5 0.3t-0.1 1.3q0 2.3-0.4 3.8-0.3 1.5-1.2 2.4-0.8 0.8-2.4 1.1-1.5 0.3-3.8 0.3-3.1 0-4.3-1.1-1.1-1.2-1.1-4zm-261 51.6q-2 0-3.7-0.6t-3-1.6q-1.2-1.1-1.9-2.5-0.8-1.4-0.8-3.1 0-2.8 2.3-4.6 2.2-1.7 6-1.7 1.8 0 3.4 0.7 1.6 0.6 2.8 1.6 1.3 1.1 2 2.6 0.8 1.4 0.8 3 0 2.9-2.2 4.6-2.1 1.6-5.7 1.6zm-9.2 20.5q0-2.3 2-3.8 2.1-1.6 5.4-1.6 6.1 0 6.5 4.2 0.3 2.9 0.6 6.5 0.3 3.7 0.6 7.8 0.3 4 0.5 8.4 0.3 4.3 0.5 8.6 0.2 4.2 0.3 8.1t0.1 7.1q0 3.4-2.4 5.1-2.3 1.6-6.9 1.6-2.1 0-3.3-0.9-1.2-1-1.2-2.9 0-9.3-0.4-17.4t-1-14.5q-0.5-6.3-0.9-10.5t-0.4-5.8zm35.3-29.6q0-3.6 2-5 2-1.5 6.7-1.5 1.7 0 2.8 0.3 1.2 0.3 2 1.1 0.9 0.8 1.4 2.2 0.5 1.3 0.8 3.3 0.9 6.2 1.8 12.9 1 6.7 2.1 13.4 0.4 3.1 3.2 3.1 0.7 0 2.4-0.2t4.1-0.4q2.3-0.3 5-0.5 2.8-0.3 5.5-0.5 2.8-0.3 5.2-0.4 2.5-0.2 4.4-0.2 1.5 0 2.3 0.6 0.9 0.5 1.4 1.5 0.5 0.9 0.6 2 0.3 1.1 0.3 2.2 0 1-0.5 2.1-0.3 1.1-1 2-0.6 0.8-1.5 1.3-1 0.6-2.2 0.6-5.8 0-11.8 0.4-6 0.3-11.9 0.9-3 0.4-3 3 0 0.2 0 0.6 0.1 0.3 0.1 0.5 0.8 5.8 1.5 10.9 0.7 5.2 1.2 9.2t0.8 6.7q0.4 2.6 0.4 3.5 0 2.4-0.5 4.1-0.5 1.6-1.6 2.7-1 1-2.9 1.5-1.7 0.4-4.4 0.4-2.6 0-3.8-1.2-1.2-1.3-1.3-3.8-0.4-7.9-1.3-15.9-0.9-8.1-2-16.1-0.6-2.9-3.1-2.9-0.2 0-0.4 0-0.3 0.1-0.5 0.1-4.2 1-7.9 1.9t-6.9 2q-1.9 0.6-3.3 0.9-1.4 0.2-2.5 0.2-1.6 0-2.3-1.3-0.8-1.5-0.8-3.6 0-0.7 0.2-1.6 0.1-1 0.4-2 0.4-1 1.1-1.8 0.8-0.9 2-1.4 2.8-1.2 7.5-2.4 4.7-1.3 10.7-2.3 1.3-0.4 2.1-1.1 0.8-0.8 0.8-2.4 0-0.3 0-0.7t-0.2-0.8q-1-6.2-2.1-11.2-0.9-5.1-1.6-8.8-0.7-3.6-1.1-5.7t-0.4-2.4zm83.6 55.4q0-1.1 0.3-2.5 0.2-1.4 0.2-3.1 0-1.2-1-1.8-0.9-0.6-2.1-1.3-1.2-0.8-2.3-1.9-0.9-1.2-0.9-3.3 0-1.6 0.8-3.1 0.9-1.6 2.5-2.8 4-3 8.2-5.4 4.3-2.3 8.6-3.9 4.3-1.7 8.5-2.5 4.2-0.9 8-0.9 6.5 0 12.1 2.4 5.7 2.4 9.9 6.5 4.3 4.2 6.7 9.7 2.5 5.6 2.5 11.9 0 6.2-2.6 11.8-2.6 5.5-7 9.7t-10.3 6.7q-5.8 2.4-12.4 2.4-6.4 0-11.8-2.2-5.5-2.1-9.5-5.9t-6.2-9q-2.2-5.3-2.2-11.5zm31.2 16.5q2.8 0 5.9-1.2 3-1.1 5.5-3.3t4.2-5.4q1.6-3.1 1.6-7.1 0-4.1-1.4-7.6-1.5-3.5-4.1-6-2.6-2.6-6.2-4.1-3.5-1.5-7.6-1.5-7.5 0-11.4 3.9-4 3.8-4 11.9 0 4.3 1.3 8.1 1.3 3.7 3.7 6.5 2.3 2.7 5.5 4.2 3.2 1.6 7 1.6zm53.7-18q0 9.1 2.8 14 2.7 4.9 8 4.9 3.3 0 6-1.9 2.9-2 4.9-5.5t3.1-8.3 1.1-10.5q0-3.4-0.2-5.9-0.3-2.6-0.6-4.5-0.3-2.1-0.6-3.6-0.2-1.6-0.2-3 0-2.1 1.8-3.1t5.8-1q5 0 7.8 2.3t2.8 6.7q0 11.9-2.3 21.4t-6.7 16.2q-4.3 6.6-10.5 10.1-6.2 3.6-13.9 3.6-5.5 0-10.1-2.2-4.6-2.3-8-6.3-3.3-4.1-5.1-9.7-1.9-5.7-1.9-12.4 0-2.6 0.1-5.5t0.4-6.2q0.3-3.4 0.7-7.3t1-8.5q0.2-1.9 1.8-3.1 1.7-1.2 4.3-1.2 2.2 0 4.3 0.5 2 0.5 3.4 1.3 1.5 0.8 2.3 1.9 0.9 1 0.9 2.3 0 1.2-0.6 3.8-0.4 2.6-1 5.9t-1.1 7.2-0.5 7.6zm56.9-53.9q0-3.6 2-5 2-1.5 6.7-1.5 1.6 0 2.8 0.3t2 1.1q0.9 0.8 1.4 2.2 0.5 1.3 0.8 3.3 0.8 6.2 1.8 12.9t2.1 13.4q0.4 3.1 3.1 3.1 0.8 0 2.5-0.2t4.1-0.4q2.3-0.3 5-0.5 2.8-0.3 5.5-0.5 2.8-0.3 5.2-0.4 2.5-0.2 4.4-0.2 1.4 0 2.3 0.6 0.9 0.5 1.4 1.5 0.5 0.9 0.6 2 0.2 1.1 0.2 2.2 0 1-0.4 2.1-0.3 1.1-1 2-0.6 0.8-1.5 1.3-1 0.6-2.2 0.6-5.8 0-11.8 0.4-6 0.3-11.9 0.9-3 0.4-3 3 0 0.2 0 0.6 0.1 0.3 0.1 0.5 0.8 5.8 1.5 10.9 0.7 5.2 1.2 9.2t0.8 6.7q0.4 2.6 0.4 3.5 0 2.4-0.5 4.1-0.5 1.6-1.6 2.7-1 1-2.9 1.5-1.7 0.4-4.4 0.4-2.6 0-3.8-1.2-1.2-1.3-1.3-3.8-0.4-7.9-1.3-15.9-0.9-8.1-2-16.1-0.6-2.9-3.1-2.9-0.2 0-0.4 0-0.3 0.1-0.5 0.1-4.2 1-7.9 1.9t-6.9 2q-1.9 0.6-3.3 0.9-1.4 0.2-2.5 0.2-1.6 0-2.3-1.3-0.8-1.5-0.8-3.6 0-0.7 0.2-1.6 0.1-1 0.4-2 0.4-1 1.1-1.8 0.8-0.9 2-1.4 2.8-1.2 7.5-2.4 4.7-1.3 10.7-2.3 1.3-0.4 2.1-1.1 0.8-0.8 0.8-2.4 0-0.3 0-0.7t-0.2-0.8q-1-6.2-2.1-11.2-0.9-5.1-1.6-8.8-0.7-3.6-1.1-5.7t-0.4-2.4z"></path><path d="m362 138c1.64-0.0395 3.4-0.0464 6.91 8e-3 1.84 0.0283 4.59 0.0815 7.06 0.0652 0.277-2e-3 0.565-5e-3 0.864-8e-3 1.02-0.0135 2.39-0.0439 3.89-0.123 2.47-0.129 5.02-0.359 7.81-0.681 4.25-0.491 8.59-1.15 13-1.68 0.953-0.116 1.93-0.229 2.92-0.332 4.49-0.472 9.11-0.915 13.8-1.44 4.09-0.456 8.21-0.97 12.3-1.62 3.65-0.573 7.24-1.24 10.8-2.06 2.66-0.613 5.23-1.29 7.73-2.05 7.05-2.14 13.7-4.39 19.9-6.66 7.13-2.61 13.6-5.2 19.3-7.68 7.25-3.13 13.1-5.94 17.4-8.08a5.8 5.8 90 0 0-5.19-10.4c-4.12 2.06-9.78 4.78-16.8 7.8-5.56 2.4-11.8 4.91-18.7 7.44-6.04 2.21-12.5 4.38-19.3 6.46-2.21 0.674-4.52 1.29-6.95 1.84-3.24 0.745-6.56 1.37-9.99 1.91-3.89 0.612-7.82 1.1-11.8 1.55-4.56 0.508-9.15 0.95-13.7 1.43-1.07 0.111-2.11 0.232-3.12 0.354-4.62 0.563-8.92 1.22-12.9 1.68-2.62 0.302-4.91 0.507-7.08 0.62-1.3 0.0683-2.5 0.0957-3.44 0.108-0.271 4e-3 -0.534 6e-3 -0.788 8e-3 -2.3 0.0152-4.88-0.0345-6.8-0.0641-3.61-0.0554-5.52-0.0501-7.37-6e-3a5.8 5.8 90 0 0 0.279 11.6z"></path><path d="m442 82.4c2.12 1.22 4.95 2.76 8.55 4.47 2.84 1.35 5.98 2.73 9.54 4.16 3.4 1.36 6.92 2.68 10.8 4.05 4.46 1.58 9.13 3.15 13.9 4.8 0.2 0.0697 0.427 0.157 0.727 0.278 0.0851 0.0343 0.176 0.0715 0.27 0.11 0.345 0.142 0.651 0.272 1.1 0.461 0.801 0.338 1.89 0.795 2.99 1.2 0.637 0.233 1.38 0.488 2.2 0.713 0.596 0.165 1.29 0.333 2.06 0.457 0.592 0.0953 1.29 0.175 2.06 0.184 0.222 2e-3 0.433-2e-3 0.527-3e-3 4e-3 -6e-5 8e-3 -1.2e-4 0.0124-1.9e-4 0.321-5e-3 0.79-0.0149 1.11-0.0201 0.906-0.0157 1.8-0.0261 2.68-0.0208 0.503 3e-3 0.984 0.0113 1.45 0.0294 0.292 0.0116 0.536 0.0254 0.752 0.0445 0.123 0.011 0.186 0.0205 0.177 0.019-9e-3 -2e-3 -0.0183-3e-3 -0.0275-5e-3 0.0395 7e-3 -0.126-9e-3 -0.479-0.127-0.0294-0.01-0.0587-0.0199-0.0879-0.0302-0.051-0.018-0.698-0.162-1.62-0.934-0.0137-0.0115-0.0274-0.023-0.0409-0.0346-0.342-0.291-0.797-0.75-1.19-1.41-0.204-0.342-0.406-0.764-0.557-1.26-0.151-0.5-0.248-1.07-0.245-1.68 4.1e-4 -0.153 0.0215-0.206-0.0105-0.0363-0.0347 0.176-0.0914 0.4-0.183 0.705-0.119 0.393-0.266 0.815-0.44 1.27-0.239 0.631-0.506 1.27-0.794 1.93-0.401 0.917-0.828 1.83-1.27 2.74-0.608 1.26-1.24 2.5-1.87 3.72-0.847 1.62-1.72 3.23-2.57 4.79-0.472 0.863-0.649 1.18-1.12 2.04-0.274 0.502-0.567 1.05-0.796 1.47-2.38 4.43-4.62 8.68-6.69 12.7-2.55 4.91-4.9 9.5-7.02 13.7-0.972 1.92-1.83 3.63-2.54 5.06a5.8 5.8 90 0 0 10.4 5.19c0.712-1.42 1.56-3.11 2.52-5.02 2.1-4.15 4.43-8.7 6.96-13.6 2.05-3.94 4.27-8.15 6.62-12.5 0.247-0.459 0.507-0.945 0.757-1.4 0.304-0.557 0.814-1.48 1.12-2.04 0.871-1.59 1.78-3.28 2.68-5 0.672-1.29 1.36-2.64 2.03-4.03 0.487-1.01 0.98-2.06 1.46-3.15 0.34-0.779 0.686-1.61 1.01-2.47 0.235-0.62 0.475-1.3 0.694-2.02 0.162-0.536 0.334-1.17 0.469-1.86 1e-3 -6e-3 2e-3 -0.0111 3e-3 -0.0167 0.0959-0.501 0.217-1.25 0.219-2.11l-1.4e-4 0.0275c5e-3 -0.639-0.0946-1.23-0.252-1.75-0.156-0.515-0.365-0.952-0.577-1.31-0.411-0.692-0.89-1.18-1.26-1.49-0.0136-0.0116-0.0272-0.0231-0.0409-0.0346-0.944-0.79-1.93-1.1-1.97-1.11-0.0292-0.0103-0.0586-0.0204-0.0879-0.0302-0.573-0.192-1.07-0.276-1.26-0.307-9e-3 -0.0016-0.0183-0.0031-0.0275-0.0046-0.406-0.0669-0.771-0.104-1.04-0.128-0.486-0.0429-0.936-0.0657-1.32-0.0811-0.642-0.025-1.26-0.0344-1.83-0.0382-1.02-0.0062-2.01 0.0059-2.96 0.0223-0.429 0.0073-0.668 0.0126-1.1 0.0199-0.14 2e-3 -0.213 0.0026-0.226 0.0024-0.0467-5.53e-4 -0.156-0.0074-0.338-0.0367-0.228-0.0368-0.494-0.097-0.805-0.183-0.418-0.116-0.856-0.262-1.31-0.429-0.803-0.294-1.64-0.644-2.47-0.994-0.423-0.178-0.791-0.335-1.2-0.501-0.114-0.047-0.23-0.0942-0.346-0.141-0.385-0.155-0.808-0.32-1.26-0.478-5e-3 -0.0018-0.0102-0.0035-0.0153-0.0053-4.87-1.68-9.5-3.23-13.8-4.77-3.77-1.33-7.14-2.59-10.3-3.88-3.36-1.35-6.27-2.63-8.87-3.87-3.29-1.57-5.86-2.97-7.75-4.06a5.8 5.8 90 0 0-5.79 10.1z"></path></g></svg>