<svg width="420" height="97" version="1.1" viewBox="0 0 420 97" xml:space="preserve" xmlns="http://www.w3.org/2000/svg"><path d="m395 39.7 0.5 4.24 0.364 0.683v17.3h-3.87v-22.2zm10.9-0.546-0.455 3.64h-1.28q-1.96 0-3.92 0.796-1.96 0.797-4.78 2.25l-0.319-2.41q2.46-2 4.94-3.14 2.48-1.14 4.8-1.14zm-29.2 0q5.01 0 7.26 1.82 2.25 1.82 2.25 5.42 0.045 2.96-1.23 4.62-1.27 1.66-4.05 1.66h-12.9v-3.01h11.9q1.5 0 1.96-1.02 0.455-1.03 0.455-2.25-0.0459-2.14-1.28-3.05-1.23-0.911-4.19-0.911-2.41 0-3.8 0.706-1.39 0.706-1.96 2.46-0.57 1.75-0.57 4.89 0 3.55 0.706 5.42 0.706 1.87 2.25 2.55 1.55 0.683 4.1 0.683 1.78 0 3.89-0.159 2.12-0.159 3.8-0.387l0.409 2.6q-1.05 0.409-2.57 0.683-1.53 0.274-3.14 0.409-1.62 0.137-2.89 0.137-3.83 0-6.15-1.16-2.32-1.16-3.39-3.73-1.07-2.57-1.07-6.81 0-4.37 1.07-6.9 1.07-2.53 3.32-3.6 2.25-1.07 5.81-1.07zm-20.9-6.01v22.6q0 1.59 0.683 2.28 0.683 0.683 2.32 0.683h3.37l0.455 2.96q-0.728 0.182-1.68 0.319-0.957 0.137-1.87 0.205-0.911 0.0675-1.46 0.0675-2.78 0-4.24-1.55-1.46-1.55-1.46-4.46v-23.1zm7.06 6.56v3.05h-14.9v-2.82l4.37-0.228zm-26.3-0.546q4.05 0 5.83 2.98 1.78 2.98 1.78 8.77 0 4.28-0.911 6.81t-2.76 3.62q-1.84 1.09-4.71 1.09-2.19 0-4.3-0.592-2.12-0.591-4.12-1.82l0.228-2.32q2.14 0.592 3.78 0.979 1.64 0.387 3.46 0.387 1.96 0 3.12-0.683 1.16-0.683 1.71-2.46 0.547-1.78 0.547-5.01 0-3.14-0.501-4.96-0.501-1.82-1.57-2.62-1.07-0.797-2.85-0.797-1.82 0-3.6 0.865-1.78 0.866-4.14 2.64l-0.364-2.6q1.23-1.32 2.78-2.28 1.55-0.957 3.26-1.48 1.71-0.524 3.35-0.524zm-9.52 0.546 0.41 4.6 0.273 0.592v14.2l-0.182 0.547q0.137 1.27 0.159 2.46 0.0225 1.18 0.0225 2.5v6.42h-3.87v-31.3zm-16.1-0.546q2.87 0 4.39 1.55 1.53 1.55 1.53 4.55v16.6h-3.83v-15.5q-0.045-2.05-0.819-2.98-0.775-0.933-2.64-0.933-1.18 0-2.25 0.387-1.07 0.387-2.35 1.21-1.28 0.82-3.1 2.14l-0.228-2.73q2.41-2.14 4.69-3.21 2.28-1.07 4.6-1.07zm-23.8 0.546 0.274 4.24 0.409 0.683v17.3h-3.87v-22.2zm9.29-0.546q2.82 0 4.33 1.53 1.5 1.53 1.55 4.58v16.6h-3.73v-15.5q0-2.14-0.866-3.03-0.865-0.888-2.6-0.888-1.14 0-2.21 0.364-1.07 0.364-2.37 1.18-1.3 0.82-3.17 2.19l-0.274-2.73q2.41-2.14 4.69-3.21 2.28-1.07 4.64-1.07zm-29 0q3.83 0 6.12 1.14t3.3 3.71q1 2.57 1 6.81 0 4.24-1 6.81-1 2.57-3.3 3.71-2.3 1.14-6.12 1.14-3.78 0-6.08-1.14-2.3-1.14-3.32-3.71-1.02-2.57-1.02-6.81 0-4.24 1.02-6.81 1.03-2.57 3.32-3.71 2.3-1.14 6.08-1.14zm0 3.28q-2.41 0-3.8 0.751-1.39 0.751-1.98 2.57-0.592 1.82-0.592 5.05 0 3.23 0.592 5.05 0.592 1.82 1.98 2.57 1.39 0.751 3.8 0.751 2.41 0 3.83-0.751 1.41-0.751 2-2.57 0.592-1.82 0.592-5.05 0-3.23-0.592-5.05-0.592-1.82-2-2.57-1.41-0.751-3.83-0.751zm-24-2.73 0.501 4.24 0.364 0.683v17.3h-3.87v-22.2zm10.9-0.546-0.455 3.64h-1.28q-1.96 0-3.92 0.796-1.96 0.797-4.78 2.25l-0.319-2.41q2.46-2 4.94-3.14 2.48-1.14 4.8-1.14zm-29.6-9.11q3.78 0 5.99 0.865 2.21 0.865 3.17 2.98 0.956 2.12 0.956 5.99 0 3.87-0.933 6.01-0.933 2.14-3.05 2.98t-5.67 0.842q-1.91 0-3.67-0.0909-1.75-0.0918-3.21-0.251-1.46-0.159-2.48-0.341-1.03-0.183-1.43-0.319l0.137-2.46q2.41 0 5.01 0 2.6 0 5.14 0 2.28-0.045 3.62-0.569 1.34-0.524 1.91-1.91 0.57-1.39 0.57-3.89 0-2.55-0.57-3.92-0.569-1.37-1.91-1.91-1.34-0.546-3.62-0.546-3.73 0-6.44 0.0459-2.71 0.045-3.67 0.137l-0.637-3.23q1.73-0.182 3.23-0.274 1.5-0.0909 3.28-0.113 1.78-0.0225 4.28-0.0225zm-6.78 0.409v31.4h-4.01v-31.4zm-23.1 8.7q2.19 0 4.33 0.569 2.14 0.57 4.1 1.75l-0.228 2.41q-2.14-0.637-3.78-1-1.64-0.364-3.51-0.364-1.91 0-3.07 0.661-1.16 0.66-1.71 2.44-0.546 1.78-0.546 5.05 0 3.28 0.524 5.1 0.524 1.82 1.66 2.55 1.14 0.729 2.91 0.729 1.32 0 2.39-0.342 1.07-0.341 2.28-1.12 1.21-0.775 2.85-1.96l0.364 2.73q-1.82 1.68-4.14 2.87-2.32 1.18-5.01 1.18-4.19 0-5.99-2.96-1.8-2.96-1.8-8.74 0-4.33 0.911-6.85 0.911-2.53 2.78-3.62 1.87-1.09 4.69-1.09zm11.6-9.15v31.9h-3.01l-0.455-3.87-0.409-0.319v-15.2l0.273-0.683q-0.182-1.27-0.228-2.46-0.045-1.18-0.045-2.5v-6.83zm-26.2 9.7v22.2h-3.82v-22.2zm-1-9.43q1.18 0 1.18 1.18v2.6q0 1.18-1.18 1.18h-1.82q-1.18 0-1.18-1.18v-2.6q0-1.18 1.18-1.18zm-25.2 9.43v15.6q-0.0459 2.1 0.774 2.96 0.82 0.865 2.73 0.865 1.87 0 3.71-0.887 1.84-0.888 4.44-2.57l0.501 2.69q-2.6 2.05-5.03 3.1-2.44 1.05-4.94 1.05-6.06 0-6.06-6.1v-16.7zm15.1 0v22.2h-3.1l-0.364-4.19-0.409-0.683v-17.3zm-28.5-9.7-0.0459 25.8q0 1.46 0.797 2.21 0.796 0.751 2.25 0.751h2.14l0.455 2.96q-0.41 0.182-1.16 0.319-0.751 0.137-1.55 0.205-0.796 0.0675-1.34 0.0675-2.46 0-3.94-1.46-1.48-1.46-1.48-4.19v-26.6zm-22.1 0.409q2.19 0 4.42 0.0234 2.23 0.0225 4.42 0.0684 2.19 0.045 4.19 0.228l-0.228 3.1h-11.8q-1.59 0-2.32 0.706-0.728 0.706-0.728 2.3v25h-4.01v-25.8q0-2.69 1.64-4.17 1.64-1.48 4.42-1.48zm-5.28 13.7h16.3v3.23h-16.3z" stroke-width=".9" style="white-space:pre"/><g transform="scale(.732)"><rect width="133" height="133" rx="20" ry="20" fill="#1d9aed"/><g fill="none" stroke="#fff" stroke-miterlimit="10" stroke-width="5px"><path d="m24.3 29.7 18.9 18.9c2.45 2.45 2.45 6.42 0 8.87l-18.9 18.9"/><path d="m38.8 29.7 14.9 14.9c1.63 1.63 3.84 2.54 6.14 2.54h40.5c4.29 0 7.78-3.48 7.78-7.78v-9.71h-69.4z"/><path d="m38.8 76.3 14.4-14.4c1.96-1.96 4.61-3.06 7.38-3.06h21.3v9.71c0 4.29-3.48 7.78-7.78 7.78z"/><path d="m40.4 88h10.7v9.71c0 4.29-3.48 7.78-7.78 7.78h-9.71v-10.7c0-3.75 3.04-6.8 6.8-6.8z"/></g><g fill="#52b1ff"><path d="m60.4 94.5v13.6h40.7c5.36 0 9.7-4.06 9.7-9.08v-13.6h-40.7c-5.36 0-9.7 4.06-9.7 9.08z"/><path d="m90.4 65.5v13.6h11.3c5.01 0 9.08-4.06 9.08-9.08v-13.6h-11.3c-5.01 0-9.08 4.06-9.08 9.08z"/><path d="m35.7 0c-4.33 0-8.48 0.77-12.3 2.19-0.58 1.2-0.91 2.53-0.91 3.95v13.6h37.8c5.01 0 9.08-4.06 9.08-9.08v-10.6h-33.6z"/><path d="m96.1 0h-18c-1.56 1.62-2.52 3.77-2.52 6.14v13.6h25.7c5.26 0 9.53-4.06 9.53-9.08v-7.8c-4.51-1.83-9.47-2.85-14.7-2.85z"/><path d="m22.1 124v5.96c4.2 1.74 8.8 2.7 13.6 2.7h8.8c0.64-1.24 1.01-2.65 1.01-4.15v-13.6h-14.4c-5.01 0-9.08 4.06-9.08 9.08z"/><path d="m51.1 124v8.66h45.7c4.77 0 9.31-0.94 13.5-2.64 0.09-0.49 0.14-1 0.14-1.51v-13.6h-49.8c-5.29 0-9.58 4.06-9.58 9.08z"/></g></g></svg>