<svg xmlns="http://www.w3.org/2000/svg" xmlns:xlink="http://www.w3.org/1999/xlink" viewBox="0 0 750 500" xmlns:v="https://vecta.io/nano"><style><![CDATA[.B{stroke-miterlimit:10}.C{fill:#333}.D{fill:none}.E{stroke-width:1.035}.F{stroke-linejoin:round}.G{fill:#1a1a1a}.H{fill:#f4b089}.I{stroke-linecap:round}.J{fill:#8eada8}.K{fill:#b43810}.L{fill:#cce5e5}.M{fill:#9bbfbe}.N{stroke-width:2.07}.O{fill:#7a9592}.P{fill:#4d4d4d}.Q{fill:#29abe2}.R{fill:#e48047}.S{fill:#603813}.T{fill:#505051}.U{fill:#0079a3}]]></style><path d="M461.434 427.169l-.173 9.195a3.79 3.79 0 0 1-2.442 3.481c-7.524 2.859-30.484 11.075-35.285 6.828-5.763-5.098 28.813-18.84 28.813-18.84l9.087-.664zm44.346 0l.173 9.195a3.79 3.79 0 0 0 2.442 3.481c7.524 2.859 30.484 11.075 35.285 6.828 5.763-5.098-28.813-18.84-28.813-18.84l-9.087-.664z" class="G"/><path d="M510.36 237.444l8.57 190.907c-8.57 2.364-14.481.296-14.481.296l-18.914-161.946h-3.859l-18.913 161.946s-5.91 2.069-14.481-.296l8.57-190.907h53.508z" class="C"/><path d="M563.535 181.591s25.713-4.43 22.463-2.36c-3.25 2.06-11.521 4.72-11.521 4.72s4.275.89.735 3.25c0 0 3.54.745.59 2.816 0 0 2.805.59.445 2.215-2.37 1.625-4.731 1.915-4.731 1.915l-1.025 2.567-.124-.052c-9.844-4.223-11.945-7.795-12.256-8.426l.103-.145s2.07-20.682 3.551-15.072 1.77 8.572 1.77 8.572z" class="K"/><g fill="#590c02"><path d="M572.254 184.394l-4.844 2.093-2.254 1.252c-.326.216-.721.516-.806.684-.02.021-.018.03-.001-.013-.005-.025-.006-.058-.019-.12-.042-.059-.051-.064-.042-.068-.002-.006-.02.002.027.01.098.04.301.069.488.082 1.631.073 3.418-.228 5.146-.437l5.261-.67c-1.679.582-3.383 1.084-5.119 1.465-1.747.371-3.466.734-5.372.673-.251-.029-.493-.046-.806-.173-.064-.015-.167-.08-.259-.152a.65.65 0 0 1-.25-.311c-.081-.16-.086-.299-.059-.436.018-.158.066-.248.111-.319.386-.587.775-.77 1.175-1.038.802-.473 1.617-.846 2.457-1.165 1.669-.65 3.404-1.111 5.166-1.357z"/><path d="M569.54 188.324c-1.008.651-2.098 1.263-2.859 2.022a1.09 1.09 0 0 0-.188.263c-.023.083.014.021-.019-.042-.041-.029.256.098.504.096.525.053 1.115.03 1.693-.02l3.533-.344 3.599-.284c-1.129.458-2.287.803-3.464 1.08s-2.372.483-3.598.58c-.617.03-1.232.059-1.898-.044-.164-.025-.34-.07-.519-.129-.185-.087-.394-.135-.601-.431-.215-.317-.104-.714.016-.886a1.92 1.92 0 0 1 .388-.423c1.066-.81 2.223-1.162 3.413-1.438z"/><path d="M570.405 191.001l-.923.715c-.275.218-.568.541-.568.689.028.046.003-.034.08.04a1.41 1.41 0 0 0 .382.135 5.14 5.14 0 0 0 1.033.128c1.464.079 2.981-.079 4.58-.034-.704.391-1.458.653-2.234.832-.776.185-1.578.268-2.403.235-.412-.034-.83-.081-1.262-.226-.216-.084-.435-.171-.663-.364-.111-.103-.23-.231-.295-.422s-.049-.407.013-.562c.286-.59.712-.706 1.081-.887a4.66 4.66 0 0 1 1.179-.279z"/></g><path d="M570.367 196.663c-9.844-4.223-11.945-7.795-12.256-8.426l-3.105 4.606-17.183 25.392c-3.602-8.726-13.881-52.305-31.913-54.076l-.29 28.953s13.881 44.925 29.253 50.836c11.78 4.534 27.038-27.162 33.507-42.192l2.112-5.041-.125-.052z" class="L"/><path d="M533.468 224.663c1.386-2.788 3.032-5.402 4.742-7.972 1.736-2.553 3.537-5.062 5.601-7.395-1.384 2.79-3.031 5.403-4.743 7.972-1.737 2.552-3.539 5.061-5.6 7.395z" class="M"/><path d="M570.367 196.663l.124.052-2.112 5.041c-10.859-4.648-13.302-8.861-13.302-8.861l-.072-.052 3.105-4.606c.312.631 2.413 4.203 12.257 8.426z" stroke="#9bbfbe" class="B D E F"/><path d="M510.747 165.769a10.99 10.99 0 0 1 7.35 10.194c.275 17.952.204 63.198-6.817 66.357-7.119 3.204-24.245 3.959-26.879 3.959s-19.836-.755-26.955-3.959c-7.016-3.157-7.092-48.337-6.818-66.315.07-4.619 3.012-8.704 7.374-10.226l26.484-9.235 26.261 9.225z" class="L"/><path d="M486.922 165.484l-3.546 6.65 4.285 52.75-5 6.206-5.048-6.206 4.285-52.75-3.546-6.65z" class="C"/><path d="M510.747 165.769c3.244.99 5.941 3.65 7.059 6.921.288.815.447 1.671.541 2.531l.1 2.549.115 5.064c.118 6.753.051 13.509-.106 20.264-.247 6.751-.57 13.509-1.322 20.234-.39 3.36-.862 6.716-1.576 10.03-.376 1.652-.81 3.296-1.409 4.887-.301.793-.643 1.576-1.086 2.304-.446.714-1.002 1.419-1.785 1.767.758-.396 1.253-1.118 1.649-1.846.4-.735.703-1.521.963-2.317.518-1.596.872-3.242 1.17-4.896.608-3.307.988-6.655 1.281-10.009.585-6.709.915-13.445 1.081-20.185.242-6.738.294-13.484.347-20.23l.026-5.06c-.007-.838.02-1.701-.028-2.511-.065-.818-.199-1.634-.443-2.423-.914-3.181-3.419-5.864-6.577-7.074z" class="M"/><path d="M487.487 218.675h-4.526l-.914-24.377h6.354z" fill="#999"/><path d="M490.392 215.13c-6.521.838-10.6 2.35-12.732 3.354l-.124-.248s-5.02-6.801-2.66-15.962l-.093-.217 4.234-1.853h3.105s.89 1.78 8.571.6c0 0 3.54.145-.59 3.25 0 0 7.681.59.29 3.84 0 0 6.066.445.155 3.25 0 .001 3.685 1.771-.156 3.986z" class="K"/><g class="L"><path d="M474.717 202.065c-.002.007-.003.015-.005.022l.07-.031-.065.009z"/><path d="M477.536 218.235s-5.17-6.999-2.824-16.148l-4.101 1.801-26.686 11.676 15.092-23.549c4.969-8.209 6.345-13.84 5.993-17.69-.569-6.211-8.167-8.913-12.577-4.493-11.459 11.48-35.102 45.37-32.886 54.976 2.598 11.283 14.471 20.33 54.386-4.141l1.905-1.18s.58-.414 1.822-1.004l-.124-.248z"/></g><path d="M477.536 218.235l.124.248c-1.242.59-1.822 1.004-1.822 1.004l-1.905 1.18c-6.937-8.942-3.323-16.78-3.323-16.78l4.172-1.832-.065.009c-2.36 9.162 2.819 16.171 2.819 16.171z" stroke="#9bbfbe" class="B D E F"/><g class="M"><path d="M437.668 217.98c6.274-2.423 12.413-5.169 18.538-7.94l18.391-8.327c.263-.113.567.008.68.271a.52.52 0 0 1-.271.68l-.019.008c-6.223 2.488-12.375 5.233-18.573 7.842-6.197 2.615-12.411 5.205-18.746 7.466zm-18.12 6.828c.706 2.539 1.854 4.988 3.669 6.853 1.764 1.916 4.173 3.096 6.682 3.654 5.093 1.032 10.406.067 15.388-1.442 5.043-1.444 9.876-3.579 14.636-5.826l3.547-1.748 3.506-1.836 3.49-1.874 3.468-1.921c-4.397 2.939-8.949 5.652-13.656 8.092-2.354 1.217-4.756 2.348-7.207 3.37-2.442 1.041-4.94 1.966-7.491 2.735-2.558.741-5.171 1.335-7.838 1.617-2.658.27-5.394.263-8.026-.395-2.61-.677-5.115-2.017-6.872-4.086-1.757-2.056-2.815-4.599-3.296-7.193z"/><path d="M443.925 215.565l2.432-4.263 2.523-4.204 5.186-8.317 5.34-8.205 2.409-4.24c.776-1.432 1.449-2.916 2.074-4.429-.831 3.176-2.225 6.186-3.794 9.068l-5.152 8.356-5.393 8.191-2.767 4.05-2.858 3.993z"/></g><path d="M490.913 191.047V180.63a5.69 5.69 0 0 0-5.689-5.689h0a5.69 5.69 0 0 0-5.689 5.689v10.417c0 0 5.172 3.546 11.378 0z" fill="#0071bc"/><path d="M474.991 189.422h20.465v12.116h-20.465z" fill="#2e3192"/><path d="M493.604 162.973l-.992-17.732-21.426-21.869 1.035 39.601 13.003 2.511z" class="K"/><path d="M492.868 150.896l.057-.061-.313-5.594-21.426-21.869.786 30.083z" fill="#a52c0c"/><path d="M490.713 101.651h-8.004c-6.353 0-11.504 5.151-11.504 11.504v11.719c-3.214.127-5.78 2.373-5.78 5.148s2.571 5.026 5.79 5.149c.103 8.271 6.832 13.174 15.127 13.174h.739a15.14 15.14 0 0 0 15.137-15.137v-20.052a11.51 11.51 0 0 0-11.505-11.505z" class="K"/><path d="M470.176 124.998l4.703 2.143 4.656-18.914s14.924 3.325 24.676-3.325c0 0-7.093-15.072-33.025-1.995 0 .001-4.662 4.156-1.01 22.091z" fill="#191610"/><path d="M488.77 123.372a1.182 1.182 0 1 1-2.364 0 1.18 1.18 0 0 1 1.182-1.182c.653 0 1.182.53 1.182 1.182zm6.797 0a1.182 1.182 0 1 1-2.364 0 1.18 1.18 0 0 1 1.182-1.182c.653 0 1.182.53 1.182 1.182z" fill="#42210b"/><g class="D B"><g class="E F I"><path d="M490.543 121.23l3.061 11.156-3.947.813" stroke="#7f1d03"/><path d="M482.395 132.238s.497 10.484 10.143 6.206" stroke="#590c02"/></g><path d="M481.604 119.013h7.166m3.768-.738s1.256-3.103 5.837-3.62" stroke="#191610" class="N"/></g><path d="M500.811 168.344c-.016 0-.032-.001-.048-.003l-18.174-1.773-18.077 1.773a.49.49 0 0 1-.479-.247.5.5 0 0 1 .029-.538l7.092-9.752a.5.5 0 0 1 .655-.134l10.828 6.443 10.829-6.443c.22-.131.502-.074.655.134l7.092 9.752c.114.158.126.368.029.538-.089.157-.254.25-.431.25z" class="L"/><path d="M493.465 157.67c.141-.092.332-.107.491-.032.166.076.249.241.356.363l.623.791 1.231 1.592 2.461 3.186 2.426 3.212.303.402.164.221c.076.119.121.258.13.4.02.285-.117.576-.354.741-.21.188-.622.162-.726.142l-2.006-.16-8.015-.709-8.012-.736h.1l-7.99.737-7.992.71-2 .161c-.061.003-.196.027-.349-.003-.142-.028-.276-.092-.386-.185a.85.85 0 0 1-.291-.762c.019-.139.077-.276.159-.385l.151-.2.302-.401 2.419-3.202 2.453-3.177 1.227-1.588.621-.788c.107-.122.19-.287.356-.362a.51.51 0 0 1 .489.032c-.148-.08-.332-.077-.472.003s-.211.238-.311.373l-.559.834-1.132 1.657-2.266 3.313-2.3 3.288-.288.411-.144.205a.15.15 0 0 0-.026.076c-.004.052.021.102.06.132.02.014.041.022.064.025.012.004.045-.002.15-.014l1.993-.231 7.979-.857 7.981-.83.05-.005.05.005 8.008.827 8.005.854 1.999.231c.222.027.173.023.242-.002.041-.025.069-.073.069-.124 0-.026-.007-.052-.019-.075l-.13-.187-.289-.412-2.307-3.297-2.272-3.323-1.136-1.662-.56-.837c-.1-.135-.168-.297-.311-.375-.136-.081-.321-.084-.469-.003z" class="M"/><path d="M644.366 194.891l-1.973-36.771c-7.309-6.138-15.634-.155-15.634-.155l-.216-.011c-1.339 17.509-2.375 47.553 2.816 51.52.001 0 11.871 6.992 15.007-14.583z" fill="#9f7b4a"/><path d="M637.09 143.006c.293-1.566 8.311-44.803 4.33-1.547 0 0 12.949-35.54 1.339 7.695 0 0 18.953-22.428-.366 8.967-7.309-6.138-15.634-.155-15.634-.155l-.216-.011.804-9.58s2.487-35.163 4.193-3.881c.224-1.372 6.504-40.525 5.55-1.488z" class="R"/><path d="M585.542 127.966h18.322v16.549h-18.322z" class="C"/><path d="M576.995 149.761l9.822-3.871v-19.298l-9.822-3.871z" class="G"/><path d="M626.028 94.72h7.536v16.826h-7.536z" class="C"/><path d="M633.564 96.345h-36.118c-2.658 0-4.812-2.154-4.812-4.812h0c0-2.658 2.154-4.812 4.812-4.812h31.306c2.658 0 4.812 2.155 4.812 4.812v4.812zm53.157 66.198h-84.444a4.03 4.03 0 0 1-4.027-4.027v-44.549a4.03 4.03 0 0 1 4.027-4.027h84.444a4.03 4.03 0 0 1 4.027 4.027v44.549a4.03 4.03 0 0 1-4.027 4.027z" class="G"/><path d="M612.952 118.953a3.99 3.99 0 1 1-7.98 0 3.99 3.99 0 0 1 3.99-3.99c2.203.001 3.99 1.787 3.99 3.99z" fill="#fc4444"/><path d="M619.601 116.515h64.054v39.231h-64.054z" class="C"/><path d="M622.925 120.948h15.515v5.984h-15.515zm20.835 24.605h15.515v5.984H643.76zm-20.835-15.739h15.515v21.723h-15.515z" stroke="#b3b3b3" class="B D E F"/><path d="M695.476 432.945v7.787c0 1.004-.814 1.817-1.817 1.817l-33.805 1.773c-1.903 0-2.902-2.318-1.542-3.65 2.414-2.365 8.499-4.477 24.161-7.728h13.003z" fill="#b53a0d"/><path d="M668.288 260.952l-3.546 71.516c0 11.23 17.731 100.478 17.731 100.478h13.003l-5.91-103.433s21.249-49.77 16.591-83.67l-37.869 15.109z" fill="#95cec4"/><path d="M651.739 436.492v7.787c0 1.004-.814 1.817-1.817 1.817l-33.805 1.773c-1.903 0-2.902-2.318-1.542-3.649 2.414-2.365 8.499-4.477 24.161-7.728h13.003z" fill="#b53a0d"/><path d="M670.652 242.038s-37.236 82.746-37.236 93.976 5.319 100.478 5.319 100.478h13.003l6.501-103.433s54.967-41.373 47.875-91.612l-35.462.591z" fill="#95cec4"/><path d="M658.24 333.059c3.406-2.94 6.687-6.005 9.826-9.209 3.167-3.174 6.201-6.472 9.134-9.849 2.916-3.392 5.728-6.87 8.351-10.484 2.631-3.604 5.147-7.295 7.402-11.139a117.03 117.03 0 0 0 6.159-11.844c1.804-4.07 3.282-8.27 4.522-12.544 1.179-4.292 1.977-8.683 2.446-13.122.465-4.448.352-8.93.036-13.421.312 2.222.761 4.448.824 6.707.05 1.126.203 2.256.168 3.386l-.015 3.396c-.231 4.522-.826 9.041-1.894 13.458-1.078 4.413-2.554 8.722-4.288 12.92-1.807 4.167-3.89 8.206-6.179 12.121-4.675 7.773-10.187 15.012-16.331 21.638s-12.843 12.737-20.161 17.986z" fill="#599b8e"/><path d="M682.621 162.69c-2.955-6.945-3.99-35.463-4.142-37.102.744-20.082-12.969-21.853-22.171-19.704-6.654 1.553-11.087 8.426-11.894 17.035-1.126 6.402-6.195 11.106-6.195 11.106l7.01-.379c2.427 10.02 8.928 17.475 15.997 19.295l1.595 13.739 19.8-3.99z" class="R"/><path d="M661.945 159.133l5.38-6.06c-2.024.473-4.083.408-6.096-.11l.716 6.17z" fill="#c5501e"/><path d="M650.113 103.143s-8.127-.296-8.57 5.763 9.9 3.99 9.9 3.99-.295 6.058 6.058 4.876c0 0-1.33 7.979 6.058 9.457 0 0 1.773 3.694 5.467 3.251 0 0 1.773 8.422 6.797 8.127s5.615-6.206 5.615-6.206 4.876-1.625 2.364-7.684c0 0 6.354-7.831-2.66-12.56 0 0-1.182-12.412-14.481-9.309.002-.001-7.682-4.582-16.548.295z" fill="#802412"/><path d="M648.775 141.874s4.876-.443 6.649-7.536" stroke="#c9571f" class="B D E F I"/><path d="M651.443 125.011a1.85 1.85 0 0 1-1.847 1.847 1.85 1.85 0 0 1-1.847-1.847 1.85 1.85 0 0 1 1.847-1.847 1.85 1.85 0 0 1 1.847 1.847z" class="S"/><path d="M647.01 122.647l7.241-.295" stroke="#802412" class="B D N"/><path d="M667.254 123.386s2.194-17.259-6.369-22.382c-.044-.026.001-.083.252-.067.734.048 2.477.286 4.871 1.411a1.27 1.27 0 0 1 .344.236c6.435 6.294 4.45 20.802 4.45 20.802h-3.548z" class="J"/><circle cx="666.663" cy="130.035" r="8.866" class="O"/><circle cx="666.663" cy="130.035" r="5.062" class="J"/><path d="M685.433 161.065c14.919 6.436 22.318 73.481 23.98 90.69.221 2.289-1.373 4.364-3.645 4.715-15.537 2.4-31.953 1.212-39.3.452-2.245-.232-3.931-2.143-3.893-4.4l.987-59.243s-28.963 22.752-37.234 20.092c-6.221-1.998-16.293-36.406-20.899-53.351l.207-.062s5.838-8.426 14.782-5.093l14.181 33.984c-.002-.001 33.692-35.175 50.834-27.784z" fill="#9f7b4a"/><path d="M610.354 142.401c-.248-1.573-7.184-44.997 3.561-2.909 0 0 .29-37.824 3.84 6.801 0 0 10.341-27.483 2.66 8.571-8.944-3.333-14.782 5.093-14.782 5.093l-.207.062-2.453-9.296s-9.44-33.963 2.65-5.062c-.248-1.366-7.452-40.359 4.731-3.26z" class="R"/><g fill="#7a5120"><path d="M630.837 179.818c1.338 2.176 2.385 4.471 3.362 6.795.948 2.336 1.823 4.703 2.406 7.19-1.34-2.175-2.387-4.47-3.362-6.795-.946-2.337-1.821-4.703-2.406-7.19zm23.365 20.354c2.832-2.597 5.851-4.942 8.915-7.225 3.083-2.258 6.212-4.453 9.53-6.393-2.831 2.599-5.85 4.944-8.915 7.226-3.084 2.256-6.214 4.45-9.53 6.392z"/><path d="M620.416 154.864l7.393 16.865 3.644 8.455 3.579 8.482-.776-.145c3.532-3.617 7.193-7.079 11.044-10.339 3.843-3.265 7.832-6.364 12.009-9.203 4.189-2.812 8.606-5.34 13.34-7.148 2.359-.911 4.832-1.578 7.358-1.815 2.512-.242 5.126-.01 7.424 1.049-2.353-.925-4.924-1.047-7.387-.72-2.476.327-4.874 1.09-7.185 2.027-2.312.944-4.545 2.077-6.717 3.316-2.162 1.26-4.258 2.627-6.331 4.03-4.12 2.847-8.06 5.957-11.855 9.232-3.786 3.281-7.514 6.657-11.02 10.224l-.006.006a.47.47 0 0 1-.77-.15l-3.512-8.51-3.446-8.537-6.786-17.119z"/></g><path d="M91.11 430.716l-.143 5.649c-.024 1.553-.819 2.93-2.02 3.481-6.223 2.859-25.213 11.075-29.185 6.828-4.766-5.098 23.832-15.293 23.832-15.293l7.516-.665zm33.131 0l.144 5.649c.024 1.553.819 2.93 2.02 3.481 6.223 2.859 25.213 11.075 29.185 6.828 4.766-5.098-23.832-15.293-23.832-15.293l-7.517-.665z" fill="#a67c52"/><path d="M129.803 240.99l5.315 190.907c-7.088 2.364-11.977.296-11.977.296l-13.87-161.946h-3.192L92.21 432.193s-4.889 2.069-11.977-.296l5.315-190.907h44.255z" fill="#b1e3dc"/><path d="M150.992 197.926l-.611.186c-14.585-3.592-19.864 7.142-20.703 9.12a138.39 138.39 0 0 1-2.888-9.213c-7.556-27.379-.259-30.485-.259-30.485s7.515-6.997 15.755 6.801c2.081 2.909 5.88 14.42 8.706 23.591z" class="T"/><path d="M152.244 199.706c8.623-10.507 20.216-25.609 19.388-29.905 0 0-6.211-25.309 2.557-3.902 0 0 3.944-35.93 4.213-4.907 0 0 6.791-33.776 3.799-.838 0 0 8.147-23.881 3.002 2.194 0 0 16.314-25.216-4.482 19.419-.973 1.221-17.846 44.542-31.013 52.844l-.476-.031c-3.592.01-12.359-7.08-19.554-27.348.839-1.977 6.118-12.712 20.703-9.12l.611-.186c.031.114.062.217.093.321l1.159 1.459z" class="H"/><path d="M133.726 166.072c3.998 1.845 5.396 5.551 5.085 10.912-1.146 19.745-4.232 62.488-9.947 65.153s-19.104 3.286-21.159 3.286-15.504-.622-21.219-3.286-8.796-45.336-9.944-65.104c-.313-5.381.038-9.433 4.056-11.273l31.2-11.653 21.928 11.965z" class="T"/><path d="M133.726 166.072c1.516.647 2.916 1.7 3.792 3.152.91 1.427 1.336 3.107 1.519 4.77.178 1.676.047 3.354-.02 5l-.24 4.962c-.348 6.614-.856 13.22-1.423 19.821-.656 6.593-1.358 13.187-2.415 19.736-.544 3.271-1.14 6.538-1.935 9.763-.413 1.608-.869 3.209-1.455 4.767-.295.777-.621 1.546-1.027 2.275-.415.706-.9 1.454-1.66 1.819.732-.411 1.156-1.171 1.521-1.892.363-.737.651-1.511.906-2.293.507-1.567.885-3.176 1.22-4.79.69-3.227 1.196-6.494 1.642-9.767.89-6.548 1.599-13.124 2.173-19.713.652-6.582 1.144-13.181 1.661-19.778l.382-4.949c.117-1.656.283-3.291.167-4.918-.103-1.621-.437-3.255-1.25-4.673-.786-1.434-2.087-2.542-3.558-3.292z" fill="#3c3c3f"/><g class="P"><path d="M231.926 87.171h147.392v4.433H231.926z"/><path d="M306.939 87.171h72.379v4.433h-71.862"/></g><path d="M246.555 91.16L99.385 256.062h5.319L251.874 91.16z" fill="gray"/><path d="M231.926 87.171h147.392v4.433H231.926z" class="P"/><path d="M19.454 369.465c-.068 0-.136-.008-.205-.024-.477-.113-.771-.591-.658-1.068 6.207-26.12 26.757-46.075 43.967-60.541l11.854-9.723c15.421-12.492 31.366-25.41 42.694-41.866 1.194-1.735 2.381-3.599 2.632-5.632.279-2.264-.627-4.584-1.502-6.827l-.499-1.299c-3.578-9.611-2.523-22.411 6.415-28.279 5.095-3.346 11.34-3.548 17.378-3.744 6.062-.197 11.788-.383 16.467-3.458 7.21-4.739 8.583-13.735 10.038-23.258l.105-.689.997-5.954c1.21-6.266 3.225-13.241 9.032-17.626 3.725-2.812 8.436-4.038 12.992-5.225 5.929-1.543 11.528-3.001 14.598-7.703 1.237-1.895 1.944-4.169 2.226-7.154l.169-5.891c-.008-3.8-.016-7.757 1.329-11.404 3.345-9.068 12.83-12.225 22.004-15.278 7.139-2.376 14.521-4.833 19.294-10.007 1.31-1.42 2.437-3.077 3.528-4.68l.663-.971 3.652-4.551c.022-.028.046-.054.072-.079 5.002-4.893 12.881-6.873 21.082-5.289 7.437 1.434 13.956 5.311 19.894 9.287l.393.263c5.585 3.742 11.914 7.985 18.431 6.911 4.392-.723 7.806-3.58 11.498-6.96l4.525-4.04c2.576-2.127 4.826-3.493 7.108-4.322 4.432-1.61 9.555-1.014 14.058 1.634s7.513 6.836 8.26 11.491a.89.89 0 0 1-.735 1.016c-.482.081-.938-.252-1.016-.735-.663-4.131-3.363-7.864-7.408-10.243s-8.623-2.925-12.553-1.496c-2.085.758-4.169 2.029-6.559 4l-4.491 4.011c-3.753 3.436-7.532 6.592-12.399 7.395-7.209 1.185-13.848-3.263-19.706-7.188l-.393-.263c-5.783-3.872-12.116-7.645-19.243-9.02-7.491-1.445-14.946.387-19.469 4.779l-3.579 4.458-.619.91c-1.127 1.656-2.292 3.369-3.691 4.885-5.083 5.51-12.686 8.04-20.037 10.487-9.18 3.055-17.85 5.941-20.9 14.209-1.235 3.348-1.228 7.143-1.221 10.814l-.173 5.976c-.313 3.34-1.109 5.869-2.51 8.015-3.445 5.276-9.643 6.889-15.636 8.449-4.389 1.143-8.927 2.324-12.371 4.924-5.328 4.023-7.214 10.612-8.356 16.526l-1.094 6.595c-1.449 9.488-2.947 19.299-10.817 24.473-5.096 3.349-11.343 3.552-17.384 3.748-6.06.197-11.783.382-16.462 3.454-6.178 4.056-10.129 14.351-5.727 26.178l.489 1.273c.956 2.448 1.944 4.98 1.61 7.688-.3 2.431-1.612 4.505-2.931 6.421-11.473 16.667-27.52 29.667-43.038 42.238l-11.829 9.701c-17.001 14.292-37.296 33.981-43.382 59.595-.096.409-.459.683-.861.683z"/><path d="M148.715 206.748l-8.543 9.572-3.167-2.411 9.517-10.663zm51.402-57.594l-11.238 12.591-2.89-2.722 10.675-11.961zm43.283-48.498l-13.901 15.575-2.565-3.085 11.877-13.309z" fill="gray"/><path d="M306.939 87.171h-17.77l.172 4.433h18.115z" class="P"/><path d="M416.997 99.361h-48.761c-5.509 0-9.974-4.465-9.974-9.974h0c0-5.508 4.465-9.974 9.974-9.974h48.761c5.508 0 9.974 4.465 9.974 9.974h0c0 5.509-4.465 9.974-9.974 9.974z" class="C"/><path d="M121.362 159.425l-.256-14.924-21.426-21.869.392 35.894s11.202 8.878 21.29.899z" class="H"/><path d="M121.227 150.868l-.122-6.368-21.425-22.588.331 30.354c2.461 1.722 9.081 2.625 21.216-1.398z" fill="#ed9c74"/><path d="M99.707 137.535c.103 8.271 6.832 13.174 15.127 13.174h.739a15.14 15.14 0 0 0 15.137-15.137V115.52c0-6.353-5.15-11.504-11.504-11.504h-8.004c-6.354 0-11.504 5.15-11.504 11.504l.009 22.015z" class="H"/><g fill="#736357"><path d="M105.443 98.549c-12.56-2.364-10.639 9.013-10.639 9.013s-4.581 15.072 3.842 15.072 7.831-11.821 7.831-11.821 5.172 4.433 9.161 0c0 0 5.172 3.251 8.127-.887 0 0 4.728 2.66 7.831-2.069s-2.069-7.093-2.069-7.093-.739-7.092-7.684-3.251c.001.002-6.5-6.352-16.4 1.036z"/><path d="M130.71 129.939c-1.272.575-2.964 1.642-4.876 3.334-3.842 3.399-3.694 2.955-6.649 3.103s-3.251-3.103-9.752-5.319-7.24-10.639-7.24-10.639l-2.492-.383.008 17.501c.103 8.271 6.832 13.174 15.127 13.174h.739a15.14 15.14 0 0 0 15.137-15.137v-5.634z"/></g><path d="M117.708 125.294a1.33 1.33 0 0 1-2.66 0 1.33 1.33 0 0 1 2.66 0zm7.684 0a1.33 1.33 0 0 1-2.66 0 1.33 1.33 0 0 1 2.66 0z" class="S"/><g class="D B"><g class="E F I"><path d="M120.072 122.634l3.546 6.798-3.842 2.659" stroke="#d87c4e"/><path d="M110.615 134.751s1.182 9.9 10.195 6.945" stroke="#493b32"/></g><path d="M111.206 124.112s.887-3.842 4.728-4.876m5.763-2.512s3.842 1.182 4.433 3.842" stroke="#736357" class="N"/></g><path d="M98.055 120.418s-.749-17.33 4.285-19.8c7.831-3.842 26.265-2.396 26.265-2.396s1.13-.119.977 1.835a.39.39 0 0 1-.422.357c-2.482-.212-16.451-1.22-23.57 2.272-5.034 2.47-4.285 18.47-4.285 18.47l-3.25-.738z" class="J"/><ellipse cx="98.561" cy="129.136" rx="7.831" ry="10.639" class="O"/><ellipse cx="96.904" cy="129.337" rx="6.174" ry="8.388" class="J"/><path d="M124.999 237.996c.062 1.946-2.495 2.163-2.495 2.163v.28c.559 3.105-1.987 3.209-1.987 3.209.331 1.884-2.557 1.998-2.557 1.998-1.18 2.36-12.07-1.108-12.07-1.108-4.886-1.77-47.44-7.246-58.516-18.177-2.339-2.722-2.619-13.995 8.157-32.617 10.846-2.893 20.92 10.165 20.92 10.165l-6.915 10.631s39.615 21.241 45.939 18.415c6.314-2.826 4.099.228 4.099.228-1.168 3.654 5.374 2.877 5.425 4.813z" class="H"/><g fill="#cc663a"><path d="M72.228 215.957c-1.349-.255-2.55-.79-3.715-1.39-1.15-.629-2.265-1.326-3.229-2.304 1.35.253 2.551.788 3.715 1.39 1.148.631 2.263 1.328 3.229 2.304z"/><use xlink:href="#B"/><use xlink:href="#B" x="-2.161" y="3.518"/><path d="M119.217 245.393c-.376.398-.918.578-1.433.662-.525.091-1.054.053-1.564-.035-1.015-.207-1.969-.649-2.691-1.43.538.003 1.022.079 1.496.163l1.388.251 1.36.247 1.444.142z"/></g><path d="M83.718 165.63s10.196 1.18 5.031 16.407c-.869 3.457-7.153 13.778-12.297 21.872 0 0-18.819-10.817-20.92-10.165a131.61 131.61 0 0 1 5.145-8.167c15.951-23.488 23.041-19.947 23.041-19.947z" class="T"/><path d="M83.708 165.573c1.644.178 3.22.966 4.429 2.153 1.228 1.19 1.931 2.844 2.23 4.502.219.832.174 1.681.248 2.527l-.211 2.516-.488 2.466-.698 2.406.011-.039c-.626 2.143-1.659 3.955-2.645 5.825l-3.176 5.445c-2.223 3.561-4.521 7.069-6.967 10.479l6.223-10.919 3.035-5.481a60.4 60.4 0 0 0 1.408-2.781c.431-.931.889-1.882 1.14-2.815l.002-.007.01-.033.699-2.328c.227-.777.35-1.574.532-2.362.144-.792.183-1.595.276-2.393-.033-.793.055-1.607-.113-2.386-.193-1.576-.792-3.111-1.844-4.316-1.039-1.215-2.499-2.082-4.101-2.459z" fill="#3c3c3f"/><path d="M237.685 327.365l-27.483 121.498h-6.386l28.74-121.498zm8.859 0l27.483 121.498h6.386l-28.74-121.498z" class="C"/><path d="M220.751 394.917h42.727v4.433h-42.727zm47.366-72.847c0 4.488-11.642 8.127-26.003 8.127s-26.003-3.638-26.003-8.127v-7.388h52.005v7.388z" class="P"/><ellipse cx="242.115" cy="314.682" rx="26.002" ry="8.127" class="C"/><path d="M268.076 230.424c1.977.611 13.798 8.83 21.81 14.502-.155 2.857-1.532 9.979-10.672 15.993-5.404-3.033-9.42-5.683-9.42-5.683-19.823-15.175-16.366-21.22-16.366-21.22s1.543-8.881 14.648-3.592z" class="Q"/><path d="M334.656 213.096c.487-.673 14.854-20.93-4.617 16.914-.901 1.046-13.208 32.182-25.061 39.025-4.751 2.671-17.059-3.23-25.764-8.116 9.14-6.014 10.517-13.136 10.672-15.993l7.494 5.331s26.003-25.061 25.081-31.064c0 0-4.575-22.442 2.391-3.333 0 0 4.699-31.427 3.861-4.172 0 0 7.132-29.429 3.375-.6.001 0 7.971-20.682 2.568 2.008z" class="H"/><path d="M297.379 250.261c-.243.906-.726 1.604-1.264 2.254-.563.629-1.185 1.207-2.047 1.577.242-.907.724-1.605 1.264-2.254.565-.627 1.187-1.205 2.047-1.577z" fill="#d87544"/><g class="S"><use xlink:href="#C"/><use xlink:href="#C" x="-11.082" y="8.644"/></g><path d="M222.761 294.734s-3.546 10.195.887 19.504c4.074 8.556 44.328 49.648 44.328 49.648l-6.649 82.008s7.092 5.172 11.821 1.773l1.182-7.536s4.728 3.546 10.048 0l20.246-85.722c.541-2.289.233-4.699-.913-6.753-7.772-13.933-42.827-50.706-42.827-50.706l-38.123-2.216z" fill="#a67c52"/><path d="M273.148 447.667l14.412-85.249a16.71 16.71 0 0 0-3.447-13.248l-27.81-34.636" stroke="#82552b" class="B D E"/><path d="M266.78 230.035c3.867 1.836 6.048 6.584 5.513 11.754-1.906 18.447-6.271 55.431-11.479 57.592-5.175 2.147-17.143 2.601-18.978 2.593s-13.852-.564-19.008-2.755c-5.186-2.204-9.233-39.16-10.985-57.641-.492-5.193 1.73-9.943 5.632-11.741l22.262-8.298c4.164-1.552 8.794-1.243 12.714.849l14.329 7.647z" class="Q"/><path d="M266.78 230.035c2.854 1.217 4.739 4.071 5.495 7.048.363 1.51.469 3.079.35 4.63l-.407 4.556c-.572 6.069-1.296 12.123-2.07 18.172-.862 6.037-1.763 12.073-2.994 18.054-.627 2.987-1.307 5.967-2.17 8.902-.442 1.463-.925 2.918-1.533 4.325-.3.704-.636 1.396-1.037 2.051-.43.619-.872 1.311-1.6 1.609.702-.344 1.085-1.054 1.465-1.688.359-.665.657-1.363.917-2.074.529-1.42.934-2.885 1.298-4.358.758-2.94 1.347-5.924 1.877-8.917a383.86 383.86 0 0 0 2.751-18.042l2.306-18.119.547-4.533c.162-1.482.1-2.989-.193-4.455-.577-2.912-2.265-5.733-5.002-7.161z" class="U"/><path d="M218.131 229.368c8.757-4.182 24.098-.859 6.335 23.28l-12.774 14.564c-5.569-9.616-12.567-12.691-16.542-13.674 5.352-9.336 13.209-19.864 22.981-24.17z" class="Q"/><path d="M209.901 326.361c.569.994 14.751 25.723-2.039 2.754.3.725 8.26 20.092-3.261.269 0 0 3.871 26.116-8.312-15.413-12.08-32.245-9.223-43.403-9.223-43.403s2.867-7.95 8.084-17.028c3.975.983 10.972 4.058 16.542 13.674l-7.122 8.115c.176 11.977.963 38.393 4.668 41.261 0 0 18.788 13.095.569 4.058.001-.001 18.23 25.97.094 5.713z" class="H"/><path d="M204.57 275.328c-.441-1.113-.565-2.235-.615-3.359-.018-1.125.041-2.253.419-3.39.443 1.113.567 2.235.615 3.359.016 1.126-.043 2.254-.419 3.39z" fill="#d87544"/><path d="M218.131 229.368c1.43-.747 2.985-1.282 4.593-1.555s3.28-.328 4.902.069c.809.188 1.609.48 2.33.931.727.433 1.39 1.012 1.877 1.724 1.056 1.398 1.319 3.201 1.262 4.854-.183 3.366-1.506 6.451-2.963 9.353-1.547 2.875-3.371 5.57-5.299 8.174l-.025.031-6.501 7.182-6.615 7.082 6.159-7.482 6.272-7.383-.024.03c1.876-2.602 3.638-5.29 5.117-8.116 1.462-2.808 2.766-5.8 2.97-8.912.01-.386.042-.774-.006-1.154l-.044-.573-.112-.558c-.052-.38-.21-.723-.313-1.088-.173-.331-.299-.693-.531-.991-.399-.638-.96-1.168-1.598-1.584-.63-.432-1.356-.731-2.107-.937-3.039-.801-6.379-.315-9.344.903z" class="U"/><path d="M257.15 228.981l-.256-20.243-19.652-34.354.443 54.598c0-.001 9.378 7.978 19.465-.001z" class="H"/><path d="M256.948 213.015l-.054-4.278-19.652-34.355.243 29.891c4.882 11.396 14.999 10.016 19.463 8.742z" fill="#ed9c74"/><path d="M237.636 221.825s-1.601.084-3.383.869c-1.42.626-1.963 2.362-1.125 3.667 2.611 4.064 8.82 12.533 14.9 11.926l1.847-5.169 5.651 5.184s5.504-6.225 5.504-10.684-3.988-5.531-3.988-5.531 1.033 6.805-7.537 6.965-11.895-7.126-11.895-7.126" class="Q"/><path d="M237.636 221.825c-1.15.13-2.268.468-3.31.941-1.042.442-1.635 1.651-1.377 2.708.101.53.47.962.794 1.45l1.01 1.402 2.136 2.709c1.498 1.734 3.1 3.404 4.956 4.708.913.674 1.914 1.195 2.938 1.618 1.044.363 2.126.559 3.202.478l-.378.296 1.825-5.177a.47.47 0 0 1 .602-.288c.061.021.119.058.164.099l5.674 5.159-.721.038a38.31 38.31 0 0 0 2.86-3.856c.852-1.348 1.649-2.753 2.125-4.241.258-.74.384-1.499.422-2.245-.011-.76-.128-1.513-.413-2.2-.547-1.374-1.828-2.45-3.215-2.908l.555-.496c.125 1.212-.057 2.37-.534 3.46a5.74 5.74 0 0 1-2.29 2.619c-2.029 1.2-4.387 1.357-6.6 1.189-2.244-.183-4.406-1.041-6.222-2.322-1.792-1.32-3.281-3.047-4.226-5.039 1.067 1.925 2.612 3.557 4.41 4.772 1.826 1.177 3.933 1.883 6.084 2.019 2.131.114 4.393-.131 6.151-1.246 1.786-1.091 2.565-3.325 2.348-5.317l-.004-.039a.43.43 0 0 1 .382-.475c.061-.007.122.001.177.018 1.701.542 3.141 1.752 3.842 3.404.347.816.489 1.696.507 2.563a8.98 8.98 0 0 1-.447 2.542c-.508 1.623-1.326 3.083-2.196 4.49a32.17 32.17 0 0 1-2.958 3.981.5.5 0 0 1-.706.051l-.015-.014-5.629-5.208.765-.189-1.869 5.161-.006.015c-.059.164-.209.27-.373.281-1.243.083-2.468-.143-3.601-.571-1.102-.485-2.148-1.072-3.081-1.798-1.899-1.412-3.481-3.156-4.956-4.955l-2.078-2.803-.957-1.456c-.288-.48-.682-.979-.782-1.61-.242-1.227.497-2.525 1.632-2.949a10.64 10.64 0 0 1 3.383-.769z" class="U"/><path d="M241.525 200.605c1.693 8.62 9.662 12.451 18.327 10.86l.772-.142c8.732-1.603 14.511-9.981 12.908-18.713l-3.845-20.945a12.22 12.22 0 0 0-14.222-9.81l-8.361 1.535a12.22 12.22 0 0 0-9.81 14.222l4.231 22.993z" class="H"/><path d="M237.39 193.444s9.531-11.304 9.752-17.953c21.499 9.974 44.55-22.829 14.628-25.046 0 0 3.103 3.768 3.103 4.433 0 0-6.206-3.325-11.525-2.216 0 0 9.309 4.654-7.757 6.428s-12.19 23.937-11.082 30.143c-.001 0 1.107 5.319 2.881 4.211z" fill="#ea7500"/><path d="M261.975 186.13a1.83 1.83 0 1 1-3.66 0 1.83 1.83 0 0 1 3.66 0zm8.201-.887a1.83 1.83 0 0 1-3.66 0 1.83 1.83 0 0 1 3.66 0z" fill="#736357"/><g class="B D"><path d="M264.319 186.573l4.544 3.436-3.325 4.765" stroke="#d87544" class="E F I"/><path d="M255.897 179.592l6.095 2.659m3.324-1.884s.332-2.771 4.322-1.662" stroke="#ea7500" class="N"/></g><path d="M255.506 197.092c.719 1.854 1.912 3.854 3.857 4.964.601-9.046-2.296-6.778-3.857-4.964z" fill="#fc7777"/><path d="M254.456 192.89s1.441 15.182 14.407 8.201" stroke="#c15f33" class="B D E F I"/><path d="M235.616 181.549s-.749-17.331 4.285-19.8c7.831-3.842 12.116-6.206 12.116-6.206s1.478-.148 1.182 2.216c0 0-2.216 2.216-10.048 6.058-5.034 2.47-4.285 18.47-4.285 18.47l-3.25-.738z" class="O"/><ellipse cx="239.228" cy="190.267" rx="7.831" ry="10.639" class="J"/><path d="M243.716 191.068c-.45 4.611-3.566 8.08-6.96 7.749s-5.781-4.337-5.33-8.948 3.566-8.08 6.96-7.749 5.78 4.337 5.33 8.948z" class="O"/><path d="M354.417 239.767h-22.359l-27.761 217.115h4.431c0-.497 27.761-212.507 27.761-212.507h13.496l27.761 212.507h4.432c0-.497-27.761-217.115-27.761-217.115z" class="G"/><path d="M340.371 231.479l2.501 225.404h4.432c.059-.528-2.501-225.404-2.501-225.404h-4.432z" class="C"/><path d="M330.985 217.914h24.505v17.688h-24.505zm67.378-22.257l-18.104 2.82-2.547-16.352 18.104-2.82z" class="G"/><path d="M407.622 199.523l-10.3-2.314-2.97-19.068 9.108-5.336zM301.17 229.037l83.439-12.995c2.198-.342 3.702-2.401 3.359-4.599l-6.855-44.018c-.342-2.198-2.401-3.702-4.599-3.359l-83.439 12.995c-2.198.342-3.702 2.401-3.359 4.599l6.855 44.018a4.03 4.03 0 0 0 4.599 3.359z" class="C"/><path d="M367.353 174.615a3.99 3.99 0 0 0 4.556 3.328 3.99 3.99 0 0 0 3.328-4.556 3.99 3.99 0 0 0-4.556-3.328 3.99 3.99 0 0 0-3.328 4.556z" fill="#fc4444"/><path d="M366.439 211.994l-63.292 9.858-6.038-38.764 63.292-9.858z" class="G"/><path d="M358.719 184.037l-15.33 2.388-.921-5.913 15.33-2.388zm-16.8 27.517l-15.33 2.388-.921-5.913 15.33-2.388zm-18.313 2.852l-15.33 2.388-.921-5.913 15.33-2.388zm16.857-12.206l-34.35 5.35-3.289-21.117 34.35-5.35zm22.043 6.146l-15.33 2.388-3.343-21.464 15.33-2.388z" stroke="#b3b3b3" class="B D E F"/><path d="M281.653 184.72l12.223.928-.974 12.834-12.223-.928z" class="G"/><path d="M283.753 198.766l-5.572-.423 1.119-14.739 5.572.423z" class="C"/><path d="M353.287 169.309l-7.446 1.16-2.59-16.626 7.446-1.16z" class="G"/><path d="M343.507 155.449l35.688-5.558c2.626-.409 4.423-2.869 4.014-5.495h0c-.409-2.626-2.869-4.423-5.495-4.014l-30.933 4.818c-2.626.409-4.423 2.869-4.014 5.495l.74 4.754z" class="C"/><defs ><path id="B" d="M123.701 239.827c-.342.427-.867.651-1.374.777-.516.134-1.046.14-1.562.094-1.029-.123-2.016-.485-2.8-1.204.536-.041 1.025-.006 1.504.039l1.404.136 1.376.134 1.452.024z"/><path id="C" d="M281.249 437.915c34.178 38.444 3.963 16.321-5.854 8.833-1.747-1.333-2.603-3.478-2.238-5.605l.783-4.558 7.309 1.33z"/></defs></svg>